<svg width="32" height="32" viewBox="0 0 32 32" fill="none" xmlns="http://www.w3.org/2000/svg">
<path d="M15.283 28.1745C8.98792 30.4447 7.13805 27.4988 7 25.742C7 20.8118 12.1094 20.8586 14.8689 21.571V4.66122C14.8689 3.03961 15.6972 2.90448 16.1113 3.03961C17.1053 4.01257 18.0104 5.41795 18.8387 6.49902C22.1519 7.47198 23.5324 9.87736 23.8085 10.9584C24.4711 13.8773 24.2501 17.1644 23.5 19C22.8374 20.6216 23.5 23.7342 23 23C22.3374 22.027 21.9094 20.8772 21.9094 18.8502C21.9094 16.58 19.6566 14.4459 18 13.5V23.5C18 26.0946 16.2578 27.8229 15.283 28.1745Z" stroke="#FF6967" stroke-width="1.5"/>
</svg>
