<svg width="80" height="80" viewBox="0 0 80 80" fill="none" xmlns="http://www.w3.org/2000/svg">
<circle cx="40" cy="40" r="35" stroke="#FAFAFA" stroke-width="10"/>
<mask id="path-2-inside-1_1_56" fill="white">
<path d="M46.5287 5.60785C47.0431 2.89832 45.261 0.251652 42.5085 0.0786912C35.81 -0.342228 29.0843 0.928079 22.9635 3.80942C15.3301 7.40282 9.02831 13.3179 4.95934 20.7088C0.890368 28.0996 -0.737442 36.5879 0.308674 44.9597C1.35479 53.3315 5.02126 61.1582 10.7838 67.3206C16.5463 73.483 24.1099 77.6654 32.3928 79.27C40.6758 80.8745 49.254 79.8189 56.9008 76.2541C64.5476 72.6894 70.8715 66.798 74.9681 59.4224C78.253 53.5083 79.971 46.8828 79.9997 40.1712C80.0115 37.4133 77.4901 35.4579 74.7522 35.7896V35.7896C72.0143 36.1213 70.1076 38.6198 69.9812 41.3748C69.7699 45.9819 68.4983 50.5021 66.2372 54.5729C63.1634 60.107 58.4185 64.5274 52.681 67.2021C46.9434 69.8768 40.507 70.6688 34.2922 69.4649C28.0774 68.261 22.4023 65.1228 18.0786 60.4991C13.7549 55.8754 11.0038 50.0029 10.2189 43.7213C9.434 37.4398 10.6554 31.071 13.7084 25.5254C16.7614 19.9799 21.4897 15.5418 27.2172 12.8456C31.4304 10.8623 36.0256 9.89625 40.6365 9.99404C43.3938 10.0525 46.0144 8.31738 46.5287 5.60785V5.60785Z"/>
</mask>
<path d="M46.5287 5.60785C47.0431 2.89832 45.261 0.251652 42.5085 0.0786912C35.81 -0.342228 29.0843 0.928079 22.9635 3.80942C15.3301 7.40282 9.02831 13.3179 4.95934 20.7088C0.890368 28.0996 -0.737442 36.5879 0.308674 44.9597C1.35479 53.3315 5.02126 61.1582 10.7838 67.3206C16.5463 73.483 24.1099 77.6654 32.3928 79.27C40.6758 80.8745 49.254 79.8189 56.9008 76.2541C64.5476 72.6894 70.8715 66.798 74.9681 59.4224C78.253 53.5083 79.971 46.8828 79.9997 40.1712C80.0115 37.4133 77.4901 35.4579 74.7522 35.7896V35.7896C72.0143 36.1213 70.1076 38.6198 69.9812 41.3748C69.7699 45.9819 68.4983 50.5021 66.2372 54.5729C63.1634 60.107 58.4185 64.5274 52.681 67.2021C46.9434 69.8768 40.507 70.6688 34.2922 69.4649C28.0774 68.261 22.4023 65.1228 18.0786 60.4991C13.7549 55.8754 11.0038 50.0029 10.2189 43.7213C9.434 37.4398 10.6554 31.071 13.7084 25.5254C16.7614 19.9799 21.4897 15.5418 27.2172 12.8456C31.4304 10.8623 36.0256 9.89625 40.6365 9.99404C43.3938 10.0525 46.0144 8.31738 46.5287 5.60785V5.60785Z" stroke="#6FD0D7" stroke-width="20" mask="url(#path-2-inside-1_1_56)"/>
<path d="M26.392 35.2V38.406H28.086V36.74H31.936L28.254 45H30.2L34.008 36.418V35.2H26.392ZM37.9535 38.994H37.0155L37.2255 36.726H41.4395V35.2H35.6855L35.1815 40.534H37.5475C39.5775 40.534 40.1795 41.122 40.1795 42.06C40.1795 42.984 39.4095 43.558 38.1075 43.558C37.0015 43.558 35.9375 43.18 35.2235 42.592L34.4535 44.006C35.3495 44.72 36.7495 45.14 38.1355 45.14C40.7675 45.14 42.0135 43.712 42.0135 41.99C42.0135 40.254 40.8515 38.994 37.9535 38.994ZM45.1105 40.478C46.5105 40.478 47.4625 39.414 47.4625 37.79C47.4625 36.166 46.5105 35.102 45.1105 35.102C43.7105 35.102 42.7725 36.18 42.7725 37.79C42.7725 39.4 43.7105 40.478 45.1105 40.478ZM44.2985 45H45.6705L52.3625 35.2H50.9905L44.2985 45ZM45.1105 39.498C44.3825 39.498 43.9065 38.868 43.9065 37.79C43.9065 36.712 44.3825 36.082 45.1105 36.082C45.8665 36.082 46.3145 36.698 46.3145 37.79C46.3145 38.882 45.8665 39.498 45.1105 39.498ZM51.5365 45.098C52.9365 45.098 53.8885 44.02 53.8885 42.41C53.8885 40.8 52.9365 39.722 51.5365 39.722C50.1365 39.722 49.1985 40.8 49.1985 42.41C49.1985 44.02 50.1365 45.098 51.5365 45.098ZM51.5365 44.118C50.7945 44.118 50.3325 43.502 50.3325 42.41C50.3325 41.318 50.7945 40.702 51.5365 40.702C52.2785 40.702 52.7405 41.332 52.7405 42.41C52.7405 43.488 52.2785 44.118 51.5365 44.118Z" fill="#4E5C66"/>
</svg>
